{
    "asset" : {
        "generator" : "Khronos glTF Blender I/O v1.2.75",
        "version" : "2.0"
    },
    "scene" : 0,
    "scenes" : [
        {
            "name" : "Scene",
            "nodes" : [
                0,
                1,
                4
            ]
        }
    ],
    "nodes" : [
        {
            "name" : "Light",
            "rotation" : [
                0.16907575726509094,
                0.7558803558349609,
                -0.27217137813568115,
                0.570947527885437
            ],
            "translation" : [
                4.076245307922363,
                5.903861999511719,
                -1.0054539442062378
            ]
        },
        {
            "name" : "Camera",
            "rotation" : [
                0.5,
                0.5,
                -0.5,
                0.4999999701976776
            ],
            "translation" : [
                20,
                0,
                0
            ]
        },
        {
            "mesh" : 0,
            "name" : "Plane",
            "scale" : [
                3.009230613708496,
                3.009230613708496,
                3.009230613708496
            ],
            "translation" : [
                0,
                1.1291409730911255,
                -0.0005371656734496355
            ]
        },
        {
            "name" : "Point",
            "translation" : [
                -1.8896026611328125,
                0.3371312618255615,
                -0.2087571620941162
            ]
        },
        {
            "children" : [
                2,
                3
            ],
            "mesh" : 1,
            "name" : "Sphere"
        }
    ],
    "materials" : [
        {
            "alphaMode" : "BLEND",
            "doubleSided" : true,
            "emissiveFactor" : [
                0.4227457642555237,
                0.8576196432113647,
                1
            ],
            "name" : "Material.001",
            "pbrMetallicRoughness" : {}
        }
    ],
    "meshes" : [
        {
            "name" : "Plane",
            "primitives" : [
                {
                    "attributes" : {
                        "POSITION" : 0,
                        "NORMAL" : 1,
                        "TEXCOORD_0" : 2
                    },
                    "indices" : 3,
                    "material" : 0
                }
            ]
        },
        {
            "name" : "Sphere",
            "primitives" : [
                {
                    "attributes" : {
                        "POSITION" : 4,
                        "NORMAL" : 5,
                        "TEXCOORD_0" : 6
                    },
                    "indices" : 7
                }
            ]
        }
    ],
    "accessors" : [
        {
            "bufferView" : 0,
            "componentType" : 5126,
            "count" : 10629,
            "max" : [
                0.46126067638397217,
                0,
                0.653242290019989
            ],
            "min" : [
                -0.5232882499694824,
                -1.2223953008651733,
                -0.37734535336494446
            ],
            "type" : "VEC3"
        },
        {
            "bufferView" : 1,
            "componentType" : 5126,
            "count" : 10629,
            "type" : "VEC3"
        },
        {
            "bufferView" : 2,
            "componentType" : 5126,
            "count" : 10629,
            "type" : "VEC2"
        },
        {
            "bufferView" : 3,
            "componentType" : 5123,
            "count" : 62424,
            "type" : "SCALAR"
        },
        {
            "bufferView" : 4,
            "componentType" : 5126,
            "count" : 1984,
            "max" : [
                1.000000238418579,
                1,
                1.0000003576278687
            ],
            "min" : [
                -0.9999998211860657,
                -1,
                -1
            ],
            "type" : "VEC3"
        },
        {
            "bufferView" : 5,
            "componentType" : 5126,
            "count" : 1984,
            "type" : "VEC3"
        },
        {
            "bufferView" : 6,
            "componentType" : 5126,
            "count" : 1984,
            "type" : "VEC2"
        },
        {
            "bufferView" : 7,
            "componentType" : 5123,
            "count" : 2880,
            "type" : "SCALAR"
        }
    ],
    "bufferViews" : [
        {
            "buffer" : 0,
            "byteLength" : 127548,
            "byteOffset" : 0
        },
        {
            "buffer" : 0,
            "byteLength" : 127548,
            "byteOffset" : 127548
        },
        {
            "buffer" : 0,
            "byteLength" : 85032,
            "byteOffset" : 255096
        },
        {
            "buffer" : 0,
            "byteLength" : 124848,
            "byteOffset" : 340128
        },
        {
            "buffer" : 0,
            "byteLength" : 23808,
            "byteOffset" : 464976
        },
        {
            "buffer" : 0,
            "byteLength" : 23808,
            "byteOffset" : 488784
        },
        {
            "buffer" : 0,
            "byteLength" : 15872,
            "byteOffset" : 512592
        },
        {
            "buffer" : 0,
            "byteLength" : 5760,
            "byteOffset" : 528464
        }
    ],
    "buffers" : [
        {
            "byteLength" : 534224,
            "uri" : "data:application/octet-stream;base64,"
        }
    ]
}
